PathFileType	4	(X/Y/Z)	/Users/itak/Documents/Research/Walk-IL/dataset/trc/00010_00004.trc
DataRate	CameraRate	NumFrames	NumMarkers	Units	OrigDataRate	OrigDataStartFrame	OrigNumFrames
100.000000	100.000000	4	53	mm	100.000000	78	624
Frame#	Time	RPSI			LPSI			L3			STRN			T10			C7			CLAV			RBAK			LBAK			LSHO			LUPA			LAEL			LAOL			LWTS			LWPS			LFRA			LHPS			LHTS			RSHO			RUPA			RAEL			RAOL			RWTS			RWPS			RFRA			RIFD			RHTS			RHPS			RBHD			LFHD			RFHD			LBHD			LHIP			RHIP			RASI			LASI			LKNE			LTHI			LANK			LTIP			LTOE			LMT1			LMT5			LHEE			RKNE			RTHI			RANK			RTIP			RTOE			RMT1			RMT5			RHEE			LIFD			
		X1	Y1	Z1	X2	Y2	Z2	X3	Y3	Z3	X4	Y4	Z4	X5	Y5	Z5	X6	Y6	Z6	X7	Y7	Z7	X8	Y8	Z8	X9	Y9	Z9	X10	Y10	Z10	X11	Y11	Z11	X12	Y12	Z12	X13	Y13	Z13	X14	Y14	Z14	X15	Y15	Z15	X16	Y16	Z16	X17	Y17	Z17	X18	Y18	Z18	X19	Y19	Z19	X20	Y20	Z20	X21	Y21	Z21	X22	Y22	Z22	X23	Y23	Z23	X24	Y24	Z24	X25	Y25	Z25	X26	Y26	Z26	X27	Y27	Z27	X28	Y28	Z28	X29	Y29	Z29	X30	Y30	Z30	X31	Y31	Z31	X32	Y32	Z32	X33	Y33	Z33	X34	Y34	Z34	X35	Y35	Z35	X36	Y36	Z36	X37	Y37	Z37	X38	Y38	Z38	X39	Y39	Z39	X40	Y40	Z40	X41	Y41	Z41	X42	Y42	Z42	X43	Y43	Z43	X44	Y44	Z44	X45	Y45	Z45	X46	Y46	Z46	X47	Y47	Z47	X48	Y48	Z48	X49	Y49	Z49	X50	Y50	Z50	X51	Y51	Z51	X52	Y52	Z52	X53	Y53	Z53	

79	0.78	984.7299194335938	1054.60107421875	-230.2568359375	967.3096313476562	1047.85498046875	-393.4907531738281	969.0298461914062	1107.62548828125	-319.7922973632812	1182.486206054688	1313.376342773438	-330.3074035644531	935.3901977539062	1252.937255859375	-318.1493225097656	967.2835083007812	1523.203735351562	-325.9771423339844	1132.801635742188	1437.095092773438	-330.8045043945312	927.6266479492188	1382.358154296875	-245.2590789794922	946.491943359375	1481.204833984375	-422.8095703125	1044.893310546875	1495.109619140625	-502.6286010742188	1017.923034667969	1368.7080078125	-579.2705688476562	1034.141845703125	1149.0986328125	-600.44677734375	979.7998046875	1135.7265625	-510.3055114746094	1127.945434570312	898.3318481445312	-541.9403686523438	1051.751342773438	882.2755126953125	-585.1376342773438	1050.621826171875	1033.48291015625	-604.5328369140625	1086.655029296875	793.4041748046875	-584.126708984375	1150.771728515625	805.0274658203125	-555.7078247070312	1054.890258789062	1509.936157226562	-155.9977264404297	1048.4765625	1436.523803710938	-83.82655334472656	1022.861999511719	1167.475952148438	-63.93271255493164	1021.30810546875	1139.380981445312	-159.6860198974609	1157.935424804688	911.8043212890625	-93.07181549072266	1092.28662109375	896.5850219726562	-30.12467193603516	1039.05908203125	1092.879516601562	-48.34259033203125	1180.309692382812	724.6343994140625	-101.8933258056641	1191.449584960938	801.6598510742188	-75.83463287353516	1134.489624023438	797.6782836914062	-27.50461769104004	1068.301635742188	1708.10791015625	-242.0934906005859	1159.771606445312	1721.032348632812	-431.8072204589844	1208.038696289062	1723.6982421875	-346.1629638671875	990.75732421875	1708.3056640625	-364.0253601074219	1055.2080078125	950.4230346679688	-507.6441040039062	1108.36376953125	949.4447631835938	-138.5741577148438	1203.150756835938	981.5947875976562	-221.2624359130859	1177.742309570312	999.2774047851562	-455.2613525390625	1089.912475585938	504.6171875	-467.7471923828125	1072.831420898438	640.3214111328125	-501.6656494140625	980.4129638671875	30.75093841552734	-473.5949096679688	1003.397827148438	276.9934997558594	-487.8975830078125	1203.303466796875	25.8134708404541	-411.5375061035156	1143.60693359375	36.29692840576172	-394.2265930175781	1105.039794921875	27.1645622253418	-494.2554321289062	912.8311767578125	36.33248519897461	-418.5494384765625	1090.20458984375	512.3309936523438	-175.2234039306641	1123.007446289062	781.18017578125	-139.8735198974609	962.2939453125	35.93786239624023	-180.6794128417969	1058.077880859375	393.0662536621094	-170.0503234863281	1193.18505859375	30.12662124633789	-230.8021850585938	1128.367553710938	36.3831901550293	-258.572998046875	1112.053588867188	30.99631690979004	-162.3029327392578	904.4389038085938	36.67529678344727	-223.0872802734375	1159.133544921875	714.0291137695312	-525.368408203125	
80	0.79	984.7218627929688	1054.58984375	-230.2552337646484	967.3106689453125	1047.851684570312	-393.4884033203125	969.0311889648438	1107.6201171875	-319.7894592285156	1182.488647460938	1313.352661132812	-330.269287109375	935.3817749023438	1252.916137695312	-318.1815185546875	967.30419921875	1523.189575195312	-326.0566101074219	1132.804443359375	1437.076538085938	-330.7996215820312	927.6028442382812	1382.338134765625	-245.3415069580078	946.535888671875	1481.177368164062	-422.86279296875	1045.005004882812	1495.045776367188	-502.6824340820312	1018.007751464844	1368.635131835938	-579.3013305664062	1034.154541015625	1149.034790039062	-600.4514770507812	979.8604125976562	1135.683349609375	-510.3342590332031	1127.903442382812	898.2373046875	-541.89404296875	1051.748779296875	882.235595703125	-585.13427734375	1050.615478515625	1033.413208007812	-604.5205078125	1086.620483398438	793.3444213867188	-584.0939331054688	1150.755615234375	804.9902954101562	-555.6876220703125	1054.865844726562	1509.927368164062	-155.9941101074219	1048.405151367188	1436.53564453125	-83.84511566162109	1022.868286132812	1167.469604492188	-63.960693359375	1021.344116210938	1139.373779296875	-159.7152404785156	1158.239013671875	911.923583984375	-93.04855346679688	1092.522705078125	896.6238403320312	-30.15687942504883	1039.094604492188	1092.872802734375	-48.38185119628906	1180.719604492188	724.7528076171875	-101.79931640625	1191.786254882812	801.7557373046875	-75.79007720947266	1134.896606445312	797.781005859375	-27.49263763427734	1066.914428710938	1708.50390625	-242.6855316162109	1161.308715820312	1720.661376953125	-431.0165100097656	1208.251586914062	1723.6767578125	-344.6471862792969	991.2514038085938	1708.227416992188	-365.751220703125	1055.244750976562	950.4191284179688	-507.6502990722656	1108.378540039062	949.4324340820312	-138.5377044677734	1203.152709960938	981.5775756835938	-221.2332000732422	1177.771484375	999.2625732421875	-455.2178039550781	1089.974975585938	504.622314453125	-467.7565002441406	1072.826904296875	640.3329467773438	-501.6714477539062	980.4114990234375	30.7506217956543	-473.5986938476562	1003.43701171875	276.9822998046875	-487.9045715332031	1203.305297851562	25.81540107727051	-411.5389404296875	1143.60693359375	36.29931259155273	-394.2270812988281	1105.043090820312	27.16643333435059	-494.2655334472656	912.8351440429688	36.33541107177734	-418.5518493652344	1090.22607421875	512.3263549804688	-175.2124328613281	1123.035034179688	781.1925048828125	-139.8598937988281	962.2875366210938	35.95602798461914	-180.6947174072266	1058.119140625	393.0777282714844	-170.0484619140625	1193.187744140625	30.12996673583984	-230.8038482666016	1128.3681640625	36.37874603271484	-258.5846862792969	1112.05908203125	30.9913501739502	-162.3118133544922	904.4366455078125	36.67713928222656	-223.0908508300781	1159.072875976562	713.9514770507812	-525.2986450195312	
81	0.8	984.7003173828125	1054.57861328125	-230.2537384033203	967.3147583007812	1047.846069335938	-393.4868774414062	969.0300903320312	1107.617065429688	-319.7845458984375	1182.491088867188	1313.325805664062	-330.2149353027344	935.3584594726562	1252.899780273438	-318.212646484375	967.32470703125	1523.173706054688	-326.1265258789062	1132.811401367188	1437.060791015625	-330.7850952148438	927.573974609375	1382.318237304688	-245.4239501953125	946.5919189453125	1481.15625	-422.9145202636719	1045.121948242188	1494.985595703125	-502.7175598144531	1018.111206054688	1368.574829101562	-579.3300170898438	1034.181274414062	1148.977783203125	-600.4547729492188	979.9228515625	1135.647827148438	-510.3647155761719	1127.8662109375	898.1546630859375	-541.84375	1051.747436523438	882.1983642578125	-585.1278686523438	1050.615234375	1033.344360351562	-604.5003662109375	1086.585327148438	793.2885131835938	-584.05810546875	1150.738159179688	804.9590454101562	-555.66064453125	1054.84375	1509.906494140625	-155.9880065917969	1048.327392578125	1436.543334960938	-83.85667419433594	1022.863647460938	1167.458740234375	-63.97864151000977	1021.370483398438	1139.36181640625	-159.7351531982422	1158.573852539062	912.0535278320312	-93.01728820800781	1092.746215820312	896.6597290039062	-30.18758010864258	1039.1162109375	1092.85986328125	-48.41270065307617	1181.129516601562	724.862548828125	-101.6793594360352	1192.107299804688	801.8689575195312	-75.75807952880859	1135.31591796875	797.8828125	-27.46594429016113	1065.609008789062	1708.873291015625	-243.2515258789062	1162.767456054688	1720.313110351562	-430.2374267578125	1208.432739257812	1723.682006835938	-343.1993713378906	991.7415771484375	1708.130493164062	-367.4041748046875	1055.291137695312	950.41650390625	-507.6557312011719	1108.386108398438	949.419189453125	-138.4866790771484	1203.14453125	981.5497436523438	-221.1897125244141	1177.804321289062	999.2426147460938	-455.1618041992188	1090.04150390625	504.6289672851562	-467.7638549804688	1072.824462890625	640.3448486328125	-501.6761169433594	980.4105834960938	30.74975967407227	-473.6044921875	1003.478149414062	276.9700012207031	-487.9113159179688	1203.306884765625	25.81629753112793	-411.5421752929688	1143.6064453125	36.30178833007812	-394.2285461425781	1105.0478515625	27.16673851013184	-494.2766418457031	912.8388061523438	36.33901977539062	-418.5565795898438	1090.243530273438	512.318603515625	-175.2056274414062	1123.05029296875	781.2044677734375	-139.8412170410156	962.2781982421875	35.97579193115234	-180.7099456787109	1058.16015625	393.0890502929688	-170.0474853515625	1193.189697265625	30.13231086730957	-230.8056793212891	1128.365600585938	36.37254333496094	-258.5982055664062	1112.066528320312	30.9892406463623	-162.3216247558594	904.4349975585938	36.68120574951172	-223.0950622558594	1159.001953125	713.8692016601562	-525.2075805664062	
82	0.8100000000000001	984.6661987304688	1054.568115234375	-230.2514953613281	967.322998046875	1047.837280273438	-393.4859924316406	969.0274047851562	1107.615600585938	-319.7774353027344	1182.492797851562	1313.295654296875	-330.1432495117188	935.324951171875	1252.886962890625	-318.2406921386719	967.34423828125	1523.156005859375	-326.1854858398438	1132.823120117188	1437.049438476562	-330.7615051269531	927.539794921875	1382.2998046875	-245.5042266845703	946.6602172851562	1481.142211914062	-422.9640502929688	1045.239868164062	1494.929931640625	-502.7337951660156	1018.2333984375	1368.530883789062	-579.3568115234375	1034.222534179688	1148.928833007812	-600.4552001953125	979.9857177734375	1135.620849609375	-510.3945617675781	1127.834106445312	898.0859985351562	-541.7911376953125	1051.7470703125	882.1643676757812	-585.1160278320312	1050.623657226562	1033.281372070312	-604.4746704101562	1086.550415039062	793.2381591796875	-584.0197143554688	1150.718505859375	804.9334716796875	-555.626708984375	1054.820068359375	1509.876098632812	-155.9827880859375	1048.243530273438	1436.546752929688	-83.86140441894531	1022.84814453125	1167.44384765625	-63.98628997802734	1021.387329101562	1139.345825195312	-159.7449340820312	1158.926513671875	912.1931762695312	-92.98622894287109	1092.955810546875	896.6917724609375	-30.2162036895752	1039.126953125	1092.84033203125	-48.43290710449219	1181.5439453125	724.9644165039062	-101.5589370727539	1192.42138671875	802.007568359375	-75.74472808837891	1135.734497070312	797.981201171875	-27.43187713623047	1064.386108398438	1709.217529296875	-243.7834014892578	1164.151977539062	1719.990234375	-429.4695739746094	1208.588745117188	1723.712158203125	-341.8171691894531	992.2276611328125	1708.025390625	-368.9876098632812	1055.348266601562	950.4152221679688	-507.6596984863281	1108.38720703125	949.405517578125	-138.4201965332031	1203.126586914062	981.51513671875	-221.1329956054688	1177.83935546875	999.2153930664062	-455.0924987792969	1090.11279296875	504.635498046875	-467.7701416015625	1072.8232421875	640.3569946289062	-501.6797790527344	980.4104614257812	30.74750900268555	-473.6123657226562	1003.518920898438	276.9572143554688	-487.9172668457031	1203.308471679688	25.8167839050293	-411.5470275878906	1143.604858398438	36.30403137207031	-394.2314453125	1105.0537109375	27.1646614074707	-494.2882995605469	912.8436279296875	36.34317779541016	-418.5632629394531	1090.257202148438	512.3084106445312	-175.2050628662109	1123.052856445312	781.216064453125	-139.8156280517578	962.2666015625	35.99895858764648	-180.7248992919922	1058.203979492188	393.1005249023438	-170.0470428466797	1193.191528320312	30.13353157043457	-230.8080902099609	1128.360961914062	36.36411666870117	-258.6141357421875	1112.076538085938	30.9926700592041	-162.3338775634766	904.4344482421875	36.68850326538086	-223.1002655029297	1158.927856445312	713.794921875	-525.1021728515625	
